PathFileType	4	(X/Y/Z)	Kaydara	
DataRate	CameraRate	NumFrames	NumMarkers	Units	OrigDataRate	OrigDataStartFrame	OrigNumFrames	
120.00	120.00	4	72	mm	120.00	135	268	
Frame#	Time	Hips			RightUpLeg			RightLeg			RightFoot			RightFoot_End			LeftUpLeg			LeftLeg			LeftFoot			LeftFoot_End			Spine			Spine1			Spine2			Spine3			Neck			Head			Head_End			RightShoulder			RightArm			RightForeArm			RightHand			RightHandThumb1			RightHandThumb2			RightHandThumb3			RightHandThumb3_End			RightInHandIndex			RightHandIndex1			RightHandIndex2			RightHandIndex3			RightHandIndex3_End			RightInHandMiddle			RightHandMiddle1			RightHandMiddle2			RightHandMiddle3			RightHandMiddle3_End			RightInHandRing			RightHandRing1			RightHandRing2			RightHandRing3			RightHandRing3_End			RightInHandPinky			RightHandPinky1			RightHandPinky2			RightHandPinky3			RightHandPinky3_End			LeftShoulder			LeftArm			LeftForeArm			LeftHand			LeftHandThumb1			LeftHandThumb2			LeftHandThumb3			LeftHandThumb3_End			LeftInHandIndex			LeftHandIndex1			LeftHandIndex2			LeftHandIndex3			LeftHandIndex3_End			LeftInHandMiddle			LeftHandMiddle1			LeftHandMiddle2			LeftHandMiddle3			LeftHandMiddle3_End			LeftInHandRing			LeftHandRing1			LeftHandRing2			LeftHandRing3			LeftHandRing3_End			LeftInHandPinky			LeftHandPinky1			LeftHandPinky2			LeftHandPinky3			LeftHandPinky3_End			
		X1	Y1	Z1	X2	Y2	Z2	X3	Y3	Z3	X4	Y4	Z4	X5	Y5	Z5	X6	Y6	Z6	X7	Y7	Z7	X8	Y8	Z8	X9	Y9	Z9	X10	Y10	Z10	X11	Y11	Z11	X12	Y12	Z12	X13	Y13	Z13	X14	Y14	Z14	X15	Y15	Z15	X16	Y16	Z16	X17	Y17	Z17	X18	Y18	Z18	X19	Y19	Z19	X20	Y20	Z20	X21	Y21	Z21	X22	Y22	Z22	X23	Y23	Z23	X24	Y24	Z24	X25	Y25	Z25	X26	Y26	Z26	X27	Y27	Z27	X28	Y28	Z28	X29	Y29	Z29	X30	Y30	Z30	X31	Y31	Z31	X32	Y32	Z32	X33	Y33	Z33	X34	Y34	Z34	X35	Y35	Z35	X36	Y36	Z36	X37	Y37	Z37	X38	Y38	Z38	X39	Y39	Z39	X40	Y40	Z40	X41	Y41	Z41	X42	Y42	Z42	X43	Y43	Z43	X44	Y44	Z44	X45	Y45	Z45	X46	Y46	Z46	X47	Y47	Z47	X48	Y48	Z48	X49	Y49	Z49	X50	Y50	Z50	X51	Y51	Z51	X52	Y52	Z52	X53	Y53	Z53	X54	Y54	Z54	X55	Y55	Z55	X56	Y56	Z56	X57	Y57	Z57	X58	Y58	Z58	X59	Y59	Z59	X60	Y60	Z60	X61	Y61	Z61	X62	Y62	Z62	X63	Y63	Z63	X64	Y64	Z64	X65	Y65	Z65	X66	Y66	Z66	X67	Y67	Z67	X68	Y68	Z68	X69	Y69	Z69	X70	Y70	Z70	X71	Y71	Z71	X72	Y72	Z72	

135	1.117	446.8050000000003	859.65103	-201.189	539.3491799999993	869.0154500000001	-209.82777999999996	408.0866900000001	471.90918	-229.02412999999999	445.13926999999967	51.76432	-261.24897999999996	372.91431999999986	-25.657780000000002	-102.1013	362.68980999999985	821.5236699999999	-179.92087	232.32395999999972	429.00101	-114.88697999999998	167.42951000000085	81.55545000000001	115.48266000000001	214.74297999999908	51.68424	298.2605500000001	404.3266800000001	984.7082300000001	-255.95396999999997	355.4194800000005	1055.4670099999998	-301.04341000000005	299.10059999999976	1124.28178	-349.21760000000006	238.10676000000058	1182.3147200000003	-397.85391999999996	172.16926000000058	1244.59241	-446.62227	143.66011999999955	1320.63892	-396.11775000000006	113.07675000000017	1400.4038199999998	-261.42377	217.33096999999907	1242.9910799999998	-439.51873	319.67814	1305.9483399999997	-482.4907099999999	519.10383	1141.0951899999998	-542.10043	702.533300000001	1233.8734500000003	-701.3733700000001	709.4888199999987	1273.22256	-700.9375900000001	714.2342099999987	1299.91149	-725.8662900000002	720.1443900000013	1315.5017999999998	-745.2702099999999	727.3003900000003	1325.9358799999998	-763.19463	720.7565099999993	1267.0341400000002	-706.34914	752.6857499999987	1302.52721	-729.6509399999999	768.01728	1322.2020500000003	-755.8774300000001	769.1680099999994	1331.36201	-774.2045200000001	764.4673000000003	1336.8716199999997	-790.73782	726.4043099999999	1257.41169	-711.5721100000002	760.6040000000012	1286.8271999999997	-737.12224	777.9667900000004	1306.9053	-766.36663	779.6588599999995	1317.28891	-788.7780400000001	774.66309	1322.9929	-807.0145199999998	729.6730299999999	1249.7461900000003	-714.58386	763.4333100000003	1269.5667999999998	-739.8515399999998	779.1588899999988	1285.59836	-765.9416400000002	781.1054400000012	1294.8342600000005	-787.8781699999997	776.5571500000005	1299.8278600000003	-805.1762	731.7801799999997	1239.5797299999997	-718.03897	764.3674300000002	1251.63214	-743.07124	777.7357300000003	1262.0917199999997	-764.79062	779.530850000001	1267.6781600000002	-781.1914499999999	775.7177900000006	1271.4396899999997	-796.7450399999999	169.01255000000037	1206.79583	-418.30063	90.55104000000028	1107.02826	-400.3391	255.4383999999991	1090.6774799999998	-606.8741200000001	480.96857999999884	1199.9429300000004	-541.71306	499.1209600000002	1235.5436500000003	-541.6804699999999	525.64221	1252.15953	-561.09163	541.99827	1261.98437	-578.1342900000002	553.8257099999992	1268.6808600000002	-595.3573100000001	491.92531000000054	1234.5187299999998	-553.5848499999998	506.3992100000014	1272.35321	-587.9544099999999	523.3373599999995	1288.1628800000003	-615.75975	538.2348099999999	1290.70445	-629.64204	553.5110999999997	1287.8925999999997	-638.83611	485.99992999999995	1227.95177	-562.16003	496.9103300000006	1261.3053200000002	-600.3202699999999	514.5730100000001	1277.5544600000003	-631.6862800000001	532.1526400000002	1280.1397500000003	-648.9265299999998	548.67634	1276.8292200000005	-659.22559	481.36365000000114	1222.44966	-567.3317400000001	486.88094999999885	1247.8660100000002	-605.9922900000001	501.4211599999999	1260.9506100000003	-634.3184899999999	517.9242599999998	1262.87171	-651.4724699999999	533.2456299999994	1259.48763	-661.4046700000001	476.2360800000006	1214.20127	-572.37228	477.86945000000014	1232.78547	-610.9178799999999	488.1559099999995	1241.4694	-634.9724799999999	499.53700000000026	1242.0029699999998	-648.1483699999999	512.7315199999994	1238.50586	-657.3286500000002
136	1.125	446.8050000000003	859.65103	-201.189	539.3571699999993	868.90152	-209.86488000000003	407.87242999999944	471.85592999999994	-228.79354999999998	444.84497999999985	51.6943	-260.89133000000004	372.5855999999985	-25.581859999999995	-101.68836000000003	362.6516300000003	821.6286800000001	-179.88397	231.95255999999972	429.30791000000005	-114.30294	166.95298000000093	81.76014000000002	115.8828	214.22217999999884	51.81074	298.65935	404.4580399999995	984.75415	-255.95084	355.5633399999988	1055.5435800000002	-301.00571	299.23897000000034	1124.3858	-349.13423	238.2132099999999	1182.4350699999998	-397.71098	172.24496	1244.7307	-446.4148	143.65072000000055	1320.74357	-395.90774	113.07003999999961	1400.4581599999997	-261.18338	217.41369000000122	1243.1145999999999	-439.3593399999999	319.7655599999998	1305.9441	-482.50676	518.9981399999997	1140.89473	-542.21917	702.3946099999994	1233.3793	-701.70077	709.4255099999991	1272.71488	-701.25309	714.1766100000004	1299.4103200000002	-726.17371	720.0814000000009	1315.0015199999998	-745.57856	727.2248799999998	1325.4332199999997	-763.5093700000001	720.6716799999995	1266.5084999999997	-706.68877	752.6261599999998	1301.95554	-730.0260100000002	767.9477299999999	1321.61767	-756.26785	769.0828200000014	1330.78687	-774.5912899999998	764.3628100000005	1336.3157	-791.11267	726.2918200000004	1256.87862	-711.92788	760.5011600000016	1286.2452199999998	-737.5213000000001	777.8493199999994	1306.3086399999997	-766.7844499999999	779.5207200000004	1316.70302	-789.1924199999999	774.5029499999982	1322.4278600000002	-807.4163300000002	729.5405699999992	1249.2088300000005	-714.9502700000003	763.2928199999988	1268.9812099999997	-740.2664200000002	779.0017800000005	1284.9992200000004	-766.37485	780.92634	1294.2451100000003	-788.3091000000001	776.356389999999	1299.2581300000002	-805.5958099999999	731.6222099999995	1239.04055	-718.4154900000001	764.1871399999982	1251.04682	-743.4989300000001	777.5361300000004	1261.49461	-765.2358599999999	779.3123099999993	1267.0878699999998	-781.63643	775.4783900000002	1270.86633	-797.1807800000001	169.10557999999946	1206.93789	-418.08622	90.62025999999969	1107.2274599999998	-399.9126600000001	255.25096999999914	1090.4618200000002	-606.6190800000002	480.9691899999998	1199.46948	-541.67776	499.1111499999988	1235.07552	-541.70194	525.6098600000005	1251.6772000000003	-561.1559899999999	541.9475299999995	1261.4875399999999	-578.2246099999999	553.7573300000004	1268.16801	-595.46594	491.90498000000116	1234.0350299999998	-553.5985999999999	506.3365099999992	1271.8348500000002	-588.02406	523.2447299999985	1287.6180199999997	-615.8626599999999	538.1288000000004	1290.14825	-629.7613599999997	553.3975499999997	1287.3304699999999	-638.9661299999999	485.9737299999997	1227.45664	-562.16096	496.83964000000014	1260.7702099999997	-600.3687900000001	514.4690200000005	1276.98903	-631.7692099999999	532.0322199999991	1279.55996	-649.02835	548.5475100000003	1276.24262	-659.33868	481.33436000000074	1221.9473400000002	-567.3222300000001	486.8090600000014	1247.3215600000005	-606.01649	501.31967000000077	1260.3783700000001	-634.37068	517.8065999999999	1262.2849	-651.5418300000001	533.1199199999992	1258.8940699999998	-661.4841199999998	476.2046399999999	1213.69175	-572.3487700000001	477.79751000000033	1232.23283	-610.91682	488.0595400000002	1240.89255	-634.9905800000001	499.42849000000024	1241.41455	-648.1774099999999	512.6156800000008	1237.9109199999998	-657.36572
137	1.133	446.8050000000003	859.65103	-201.189	539.3653200000008	868.7798499999999	-209.90666000000002	407.65503999999964	471.79991000000007	-228.64319999999998	444.6363199999996	51.62928999999999	-260.61299	372.37071000000105	-25.52373	-101.35312000000002	362.61171000000104	821.74271	-179.83852999999996	231.68179000000055	429.58773999999994	-113.72849	166.60694999999942	81.98751	116.35677000000001	213.8280700000014	51.94391	299.13029	404.5962099999997	984.7949400000001	-255.96431000000007	355.7217500000006	1055.6138599999995	-300.99479000000014	299.3995699999996	1124.4826399999997	-349.08786999999995	238.34999000000062	1182.54862	-397.61469000000005	172.35959000000003	1244.8631200000002	-446.26433	143.70167000000038	1320.8574599999997	-395.76549	113.1509700000006	1400.54905	-261.02071	217.53489000000081	1243.22798	-439.25550999999996	319.89955999999984	1305.89695	-482.60552000000007	518.9053899999999	1140.6428000000003	-542.50739	702.2695700000004	1232.8096199999998	-702.2099100000001	709.3101599999991	1272.1434699999998	-701.763	714.0616900000005	1298.83836	-726.68414	719.9655399999992	1314.4285800000005	-746.09006	727.1071900000006	1324.8589700000002	-764.0223600000002	720.5534900000002	1265.9344799999997	-707.20158	752.5109200000006	1301.3742899999997	-730.54576	767.8308699999998	1321.0333100000003	-756.79087	768.9637299999995	1330.20268	-775.11437	764.241030000001	1335.73306	-791.63447	726.1700000000001	1256.30336	-712.44229	760.3802599999999	1285.66223	-738.0433600000001	777.7261600000002	1305.72213	-767.31026	779.3946200000009	1316.11664	-789.71839	774.3738000000012	1321.84314	-807.9409299999999	729.4161400000012	1248.63285	-715.4656599999998	763.1670400000003	1268.3976000000002	-740.7895799999999	778.8735299999989	1284.41242	-766.9014499999998	780.7949900000003	1293.6583699999999	-788.8359599999999	776.2220400000006	1298.67291	-806.1214200000002	731.4944699999996	1238.46414	-718.93163	764.0562000000009	1250.4630800000002	-744.0227400000001	777.4024200000003	1260.9081299999998	-765.7626700000001	779.1759599999987	1266.5013600000002	-782.16354	775.3391699999993	1270.28113	-797.70686	169.23240999999962	1207.0783300000003	-417.92368999999997	90.74550999999974	1107.37513	-399.7173599999999	255.34231999999975	1090.5474400000003	-606.44573	481.0888899999991	1199.51487	-541.5354499999999	499.2168899999997	1235.12792	-541.6251799999999	525.6928200000002	1251.7124	-561.1248700000001	542.0123600000006	1261.50495	-578.2210199999997	553.8051200000009	1268.1656299999997	-595.48166	492.0011800000011	1234.06779	-553.51432	506.3891100000001	1271.8245	-588.0052700000001	523.2678500000002	1287.5748700000001	-615.8803099999999	538.1392899999992	1290.0912399999997	-629.7950299999998	553.4014399999996	1287.2664	-639.0086000000001	486.0653399999992	1227.47499	-562.0623900000002	496.8862399999998	1260.7387	-600.32638	514.4829900000004	1276.9199700000001	-631.7644600000001	532.0307300000004	1279.47333	-649.0419200000001	548.5386799999997	1276.14786	-659.3613699999997	481.4238099999984	1221.95657	-567.21198	486.8561900000004	1247.27817	-605.9466599999998	501.33796000000075	1260.30051	-634.33142	517.8097699999998	1262.18919	-651.51905	533.1160900000013	1258.79027	-661.4693599999999	476.2931100000005	1213.6918800000003	-572.22254	477.8464499999991	1232.17901	-610.8181000000001	488.0849399999988	1240.8086700000001	-634.9126600000001	499.44265000000087	1241.31645	-648.1097300000001	512.623520000001	1237.80497	-657.30412
138	1.142	446.8050000000003	859.65103	-201.189	539.3737800000017	868.6596000000001	-209.94187000000002	407.4289200000003	471.75440999999995	-228.61149	444.45840000000135	51.57803	-260.44952	372.1862999999994	-25.462850000000003	-101.13832	362.5711599999995	821.8565800000002	-179.79663	231.46434000000045	429.84762	-113.17319999999998	166.32413999999972	82.20826999999998	116.83443	213.5038999999997	52.092499999999994	299.60675	404.7358199999999	984.83011	-255.99131999999997	355.89847999999984	1055.6781999999998	-301.01621	299.60845999999947	1124.5823000000003	-349.0963300000001	238.5655200000001	1182.6792400000002	-397.59445000000005	172.58575999999994	1245.0294999999999	-446.21269	143.8759	1321.0115199999998	-395.72481000000005	113.39764999999989	1400.6680499999998	-260.94290000000007	217.76685999999972	1243.35339	-439.25106999999997	320.1654400000007	1305.8057500000004	-482.83298999999994	518.8983200000002	1140.3010599999998	-542.94894	702.29601	1232.0853800000002	-702.8331800000001	709.3266100000001	1271.42096	-702.3814	714.0802199999998	1298.1185599999997	-727.29925	719.9869999999992	1313.71144	-746.70213	727.1323499999999	1324.1447099999998	-764.6312899999999	720.5734099999991	1265.2151099999999	-707.8164000000002	752.5301799999997	1300.6643300000003	-731.1472000000001	767.8544399999992	1320.32879	-757.38572	768.9914499999995	1329.49955	-775.7082599999999	764.2731800000001	1335.02976	-792.22968	726.1941599999991	1255.58572	-713.05573	760.4060799999988	1284.9547000000002	-738.6429799999999	777.7572600000003	1305.02071	-767.90256	779.4310000000005	1315.4170100000001	-790.30947	774.4151500000007	1321.14336	-808.53342	729.4432799999995	1247.9162	-716.07843	763.1981400000004	1267.69094	-741.3892699999999	778.9098000000013	1283.7112700000002	-767.4946500000001	780.8366700000006	1292.9590400000002	-789.4279100000001	776.2685399999991	1297.9734899999999	-806.7146800000002	731.5253700000012	1237.7482300000001	-719.54429	764.0929099999994	1249.7568299999998	-744.62321	777.4441700000007	1260.2065499999997	-766.35782	779.2220799999996	1265.80122	-782.75772	775.3898000000008	1269.58098	-798.3021600000001	169.45092999999997	1207.26563	-417.84504	90.95499000000018	1107.56637	-399.6560600000001	255.5681399999994	1090.75576	-606.3728099999998	481.32612999999947	1199.69019	-541.44683	499.4463400000004	1235.30695	-541.6063599999999	525.9103099999993	1251.8631600000003	-561.14626	542.2204099999999	1261.62945	-578.26644	554.00432	1268.2626	-595.5437199999999	492.2257700000009	1234.2245400000004	-553.4905499999999	506.59072000000015	1271.92423	-588.05339	523.4541100000006	1287.62966	-615.96306	538.3190400000003	1290.12501	-629.8885200000001	553.5778499999997	1287.2874300000003	-639.1036799999999	486.2877100000005	1227.61557	-562.0245799999998	497.0849899999994	1260.8149200000003	-600.3511000000001	514.6647599999997	1276.9452	-631.8248500000002	532.2045400000006	1279.47226	-649.1142599999998	548.7088000000003	1276.1323899999998	-659.43497	481.6451700000016	1222.0871900000002	-567.1625599999999	487.0554599999996	1247.34244	-605.9436099999999	501.5222399999984	1260.3184500000002	-634.35722	517.986280000001	1262.1807399999998	-651.5551799999998	533.2890800000005	1258.76781	-661.50611	476.5141199999998	1213.81267	-572.1565099999999	478.0469200000007	1232.23286	-610.7848799999998	488.2732199999991	1240.8227500000003	-634.89882	499.62517000000116	1241.3099999999997	-648.10162	512.8028599999998	1237.7853599999999	-657.29553
